# xmcd CD database file
#
# Track frame offsets:
#	150
#	15421
#	32148
#	49433
#	81605
#	91335
#	131893
#	144868
#	166871
#	185068
#	200591
#	217556
#	236725
#	254031
#	266316
#	289491
#
# Disc length: 4080 seconds
#
# Revision: 0
# Processed by: cddbd v1.4PL0 Copyright (c) Steve Scherf et al.
# Submitted via: CDex 1.51
#
DISCID=ef0fee10
DTITLE=Queen Bee and the Blue Hornet Band - Live
DYEAR=1997
DGENRE=Blues
TTITLE0=I Wanna Thank You
TTITLE1=Let Me Tell You What Love Is
TTITLE2=Queen Bee
TTITLE3=Fools Fall in Love
TTITLE4=90 MPH
TTITLE5=Love Me with a Feeling
TTITLE6=My Baby Loves the Way
TTITLE7=Cindy's Swing
TTITLE8=What Can You Do
TTITLE9=Take Your Lies Home ot Mama
TTITLE10=See See Baby
TTITLE11=What Have I Done Wrong
TTITLE12=How Can I Tell Her
TTITLE13=You're Evil
TTITLE14=Too Tall to Mambo
TTITLE15=You Never Can TEll
EXTD=YEAR: 1997
EXTT0=
EXTT1=
EXTT2=
EXTT3=
EXTT4=
EXTT5=
EXTT6=
EXTT7=
EXTT8=
EXTT9=
EXTT10=
EXTT11=
EXTT12=
EXTT13=
EXTT14=
EXTT15=
PLAYORDER=
